<?xml version="1.0" encoding="utf-8"?>
<!-- Generator: Adobe Illustrator 24.0.2, SVG Export Plug-In . SVG Version: 6.00 Build 0)  -->
<svg version="1.1" id="图层_1" xmlns="http://www.w3.org/2000/svg" xmlns:xlink="http://www.w3.org/1999/xlink" x="0px" y="0px"
	 viewBox="0 0 178.6 119.1" style="enable-background:new 0 0 178.6 119.1;" xml:space="preserve">
<style type="text/css">
	.st0{fill:#FFFFFF;}
	.st1{fill-rule:evenodd;clip-rule:evenodd;fill:#FFFFFF;}
</style>
<path class="st0" d="M144.6,50.7h1.3c3.5,0,6.3-2.8,6.3-6.3s-2.8-6.3-6.3-6.3h-9.1l-4.3-14.7c-2.2-5.9-8.8-10.3-15.3-10.3H60.7
	c-6.6,0-13.2,4.4-15.5,10.7l-4.1,14.4h-7.7c-3.5,0-6.3,2.8-6.3,6.3s2.8,6.3,6.3,6.3h1.2c-4.6,2-7.5,6.5-7.5,11.5v37.5h6.8v2.6
	c0,3.5,2.8,6.3,6.3,6.3s6.3-2.8,6.3-6.3v-2.6H134v2.6c0,3.5,2.8,6.3,6.3,6.3s6.3-2.8,6.3-6.3v-2.6h5.7V62.2
	C152.1,57.2,149.1,52.7,144.6,50.7z M39.6,87.2v-25h100v25H39.6z M60.7,25.7h56.4c1.5,0,3.3,1.3,3.5,1.8l6.5,22.2H50.7l0.8-2.6
	c0.2-0.3,0.2-0.7,0.3-1.1l5.3-18.1C57.4,27,59.2,25.7,60.7,25.7L60.7,25.7z"/>
<path class="st1" d="M68.5,74.8c0,10.4,14.3,14.3,21.4,3.7c7.3,11,21.1,6.4,21.1-3.7c0-10.1-13.7-15-21.1-3.7
	C82.9,60,68.5,64.4,68.5,74.8L68.5,74.8z M72.2,74.8c0-7.5,10.6-9.9,15.6,0C82.8,84.3,72.2,82.3,72.2,74.8L72.2,74.8z M92,74.8
	c4.5-10.1,15.4-7.3,15.3,0C107.3,82.1,96.3,84.4,92,74.8z"/>
</svg>
