<?xml version="1.0" encoding="utf-8"?>
<!-- Generator: Adobe Illustrator 24.0.2, SVG Export Plug-In . SVG Version: 6.00 Build 0)  -->
<svg version="1.1" id="图层_1" xmlns="http://www.w3.org/2000/svg" xmlns:xlink="http://www.w3.org/1999/xlink" x="0px" y="0px"
	 viewBox="0 0 178.6 119.1" style="enable-background:new 0 0 178.6 119.1;" xml:space="preserve">
<style type="text/css">
	.st0{fill:#FFFFFF;}
</style>
<path class="st0" d="M144.3,50.7h1.3c3.5,0,6.3-2.8,6.3-6.3s-2.8-6.3-6.3-6.3h-9.1l-4.3-14.7c-2.2-5.9-8.8-10.3-15.3-10.3H60.4
	c-6.6,0-13.2,4.4-15.5,10.7l-4.1,14.4h-7.7c-3.5,0-6.3,2.8-6.3,6.3s2.8,6.3,6.3,6.3h1.2c-4.6,2-7.5,6.5-7.5,11.5v37.5h6.8v2.6
	c0,3.5,2.8,6.3,6.3,6.3s6.3-2.8,6.3-6.3v-2.6h87.5v2.6c0,3.5,2.8,6.3,6.3,6.3s6.3-2.8,6.3-6.3v-2.6h5.7V62.2
	C151.8,57.2,148.8,52.7,144.3,50.7z M39.3,87.2v-25h100v25H39.3z M60.4,25.7h56.4c1.5,0,3.3,1.3,3.5,1.8l6.5,22.2H50.4l0.8-2.6
	c0.2-0.3,0.2-0.7,0.3-1.1l5.3-18.1C57.1,27,58.9,25.7,60.4,25.7L60.4,25.7z"/>
<path class="st0" d="M101.8,70.8h-25c-3.5,0-6.3,2.8-6.3,6.3s2.8,6.3,6.3,6.3h25c3.5,0,6.3-2.8,6.3-6.3
	C108.1,73.5,105.3,70.8,101.8,70.8z"/>
</svg>
